<svg aria-hidden="true" style="position: absolute; width: 0; height: 0; overflow: hidden;" version="1.1" xmlns="http://www.w3.org/2000/svg" xmlns:xlink="http://www.w3.org/1999/xlink">
<defs>

<symbol id="icon-planet" viewBox="0 0 31 32">
<path fill="#fff" style="fill: var(--color1, #fff)" d="M31.111 15.056c-0.386-6.387-4.543-11.736-10.242-13.803-0.116-0.043-0.217 0.099-0.138 0.196 2.407 2.916 4.010 7.857 4.166 13.622 0 0.068 0.056 0.121 0.123 0.121h5.962c0.072 0 0.13-0.060 0.126-0.133l0.002-0.002z"></path>
<path fill="#fff" style="fill: var(--color1, #fff)" d="M10.19 1.347c-5.569 2.129-9.61 7.416-9.991 13.709-0.005 0.072 0.053 0.133 0.126 0.133h5.791c0.068 0 0.121-0.053 0.123-0.121 0.154-5.704 1.728-10.599 4.094-13.528 0.080-0.097-0.024-0.239-0.14-0.193h-0.002z"></path>
<path fill="#fff" style="fill: var(--color1, #fff)" d="M14.655 0.443c-3.587 0.92-6.501 7.16-6.728 14.616 0 0.070 0.056 0.13 0.125 0.13h6.633c0.068 0 0.123-0.056 0.123-0.123v-14.498c0-0.080-0.075-0.142-0.154-0.123v-0.002z"></path>
<path fill="#fff" style="fill: var(--color1, #fff)" d="M14.808 31.438v-14.438c0-0.068-0.056-0.123-0.123-0.123h-6.631c-0.070 0-0.128 0.058-0.125 0.13 0.241 7.428 3.148 13.639 6.725 14.556 0.077 0.019 0.154-0.041 0.154-0.123v-0.002z"></path>
<path fill="#fff" style="fill: var(--color1, #fff)" d="M0.194 17.010c0.384 6.32 4.456 11.623 10.061 13.735 0.118 0.043 0.22-0.097 0.14-0.193-2.395-2.909-3.995-7.819-4.162-13.554 0-0.068-0.056-0.121-0.123-0.121h-5.791c-0.072 0-0.13 0.060-0.126 0.133z"></path>
<path fill="#fff" style="fill: var(--color1, #fff)" d="M16.653 31.506c3.495-1.074 6.31-7.196 6.549-14.5 0-0.070-0.055-0.13-0.125-0.13h-6.457c-0.068 0-0.123 0.055-0.123 0.123v14.384c0 0.082 0.080 0.145 0.159 0.121l-0.002 0.002z"></path>
<path fill="#fff" style="fill: var(--color1, #fff)" d="M16.494 0.619v14.445c0 0.068 0.055 0.123 0.123 0.123h6.46c0.070 0 0.128-0.058 0.126-0.13-0.225-7.331-3.044-13.484-6.551-14.561-0.080-0.024-0.159 0.039-0.159 0.121l0.002 0.002z"></path>
<path fill="#fff" style="fill: var(--color1, #fff)" d="M20.783 30.842c5.74-2.045 9.933-7.416 10.322-13.834 0.005-0.072-0.053-0.133-0.125-0.133h-5.965c-0.068 0-0.121 0.053-0.123 0.121-0.169 5.801-1.803 10.756-4.244 13.651-0.080 0.097 0.017 0.239 0.135 0.196z"></path>
</symbol>

<symbol id="icon-planet-dark" viewBox="0 0 32 32">
<path fill="#18306c" style="fill: var(--color1, #18306c)" d="M31.23 14.763c-0.39-6.453-4.59-11.857-10.347-13.944-0.117-0.044-0.219 0.1-0.139 0.198 2.431 2.946 4.051 7.938 4.209 13.761 0 0.068 0.056 0.122 0.124 0.122h6.023c0.073 0 0.132-0.061 0.127-0.134l0.002-0.002z"></path>
<path fill="#18306c" style="fill: var(--color1, #18306c)" d="M10.097 0.915c-5.626 2.151-9.708 7.492-10.094 13.849-0.005 0.073 0.054 0.134 0.127 0.134h5.85c0.068 0 0.122-0.054 0.124-0.122 0.156-5.763 1.746-10.708 4.136-13.666 0.081-0.098-0.024-0.241-0.141-0.195h-0.002z"></path>
<path fill="#18306c" style="fill: var(--color1, #18306c)" d="M14.609 0.001c-3.624 0.929-6.567 7.233-6.796 14.766 0 0.071 0.056 0.132 0.127 0.132h6.701c0.068 0 0.124-0.056 0.124-0.124v-14.646c0-0.080-0.076-0.144-0.156-0.124v-0.002z"></path>
<path fill="#18306c" style="fill: var(--color1, #18306c)" d="M14.763 31.313v-14.586c0-0.068-0.056-0.124-0.124-0.124h-6.699c-0.071 0-0.129 0.059-0.127 0.132 0.244 7.504 3.18 13.778 6.794 14.705 0.078 0.020 0.156-0.041 0.156-0.124v-0.002z"></path>
<path fill="#18306c" style="fill: var(--color1, #18306c)" d="M0 16.737c0.388 6.384 4.502 11.742 10.164 13.876 0.12 0.044 0.222-0.098 0.141-0.195-2.419-2.939-4.036-7.899-4.204-13.693 0-0.068-0.056-0.122-0.124-0.122h-5.85c-0.073 0-0.132 0.061-0.127 0.134z"></path>
<path fill="#18306c" style="fill: var(--color1, #18306c)" d="M16.631 31.382c3.531-1.085 6.375-7.27 6.616-14.649 0-0.071-0.056-0.132-0.127-0.132h-6.523c-0.068 0-0.124 0.056-0.124 0.124v14.532c0 0.083 0.081 0.146 0.161 0.122l-0.002 0.002z"></path>
<path fill="#18306c" style="fill: var(--color1, #18306c)" d="M16.468 0.179v14.593c0 0.068 0.056 0.124 0.124 0.124h6.526c0.071 0 0.129-0.059 0.127-0.132-0.227-7.406-3.075-13.622-6.619-14.71-0.080-0.024-0.161 0.039-0.161 0.122l0.003 0.002z"></path>
<path fill="#18306c" style="fill: var(--color1, #18306c)" d="M20.805 30.712c5.799-2.066 10.035-7.492 10.428-13.976 0.005-0.073-0.054-0.134-0.127-0.134h-6.026c-0.068 0-0.122 0.054-0.124 0.122-0.171 5.86-1.822 10.867-4.287 13.79-0.081 0.098 0.017 0.241 0.137 0.198z"></path>
</symbol>

<symbol id="icon-arrow" viewBox="0 0 32 32">
<path fill="#fff" style="fill: var(--color1, #fff)" d="M2.206 26.102c-1.087 1.087-1.087 2.849 0 3.935s2.849 1.087 3.935 0l-3.935-3.935zM31.072 3.953c0-1.537-1.246-2.783-2.783-2.783h-25.043c-1.537 0-2.783 1.246-2.783 2.783s1.246 2.783 2.783 2.783h22.261v22.261c0 1.537 1.246 2.783 2.783 2.783s2.783-1.246 2.783-2.783v-25.044zM6.141 30.037l24.116-24.116-3.935-3.935-24.116 24.116 3.935 3.935z"></path>
</symbol>

<symbol id="icon-arrow-orange" viewBox="0 0 42 32">
<path fill="#f2683c" style="fill: var(--color1, #f2683c)" d="M2.945 14.016c-1.105 0-2 0.895-2 2s0.895 2 2 2v-4zM41.129 17.43c0.781-0.781 0.781-2.047 0-2.828l-12.728-12.728c-0.781-0.781-2.047-0.781-2.828 0s-0.781 2.047 0 2.828l11.314 11.314-11.314 11.314c-0.781 0.781-0.781 2.047 0 2.828s2.047 0.781 2.828 0l12.728-12.728zM2.945 18.016h36.769v-4h-36.769v4z"></path>
</symbol>

<symbol id="icon-arrow-in-circle" viewBox="0 0 33 32">
<path fill="#fff" style="fill: var(--color1, #fff)" d="M32.285 16.005c0 8.837-7.163 16-16 16s-16-7.163-16-16c0-8.837 7.163-16 16-16s16 7.163 16 16z"></path>
<path fill="#f2683c" style="fill: var(--color2, #f2683c)" d="M11.153 14.797c-0.5 0-0.906 0.405-0.906 0.906s0.405 0.906 0.906 0.906v-1.811zM22.894 16.343c0.354-0.354 0.354-0.927 0-1.281l-5.764-5.764c-0.354-0.354-0.927-0.354-1.281 0s-0.354 0.927 0 1.281l5.123 5.123-5.123 5.123c-0.354 0.354-0.354 0.927 0 1.281s0.927 0.354 1.281 0l5.764-5.764zM11.153 16.609h11.1v-1.811h-11.1v1.811z"></path>
</symbol>

<symbol id="icon-arrow-left-orange" viewBox="0 0 30 32">
<path fill="#f2683c" style="fill: var(--color1, #f2683c)" d="M28.222 18.013c1.111 0 2.013-0.901 2.013-2.013s-0.901-2.013-2.013-2.013v4.025zM2.132 14.577c-0.786 0.786-0.786 2.060 0 2.846l12.808 12.808c0.786 0.786 2.060 0.786 2.846 0s0.786-2.060 0-2.846l-11.385-11.385 11.385-11.385c0.786-0.786 0.786-2.060 0-2.846s-2.060-0.786-2.846 0l-12.808 12.808zM28.222 13.987h-24.667v4.025h24.667v-4.025z"></path>
</symbol>

<symbol id="icon-arrow-right-orange" viewBox="0 0 30 32">
<path fill="#f2683c" style="fill: var(--color1, #f2683c)" d="M3.556 13.987c-1.112 0-2.013 0.901-2.013 2.013s0.901 2.013 2.013 2.013v-4.025zM29.646 17.423c0.786-0.786 0.786-2.060 0-2.846l-12.808-12.808c-0.786-0.786-2.060-0.786-2.846 0s-0.786 2.060 0 2.846l11.385 11.385-11.385 11.385c-0.786 0.786-0.786 2.060 0 2.846s2.060 0.786 2.846 0l12.808-12.808zM3.556 18.013h24.667v-4.025h-24.667v4.025z"></path>
</symbol>

<symbol id="icon-burger-open" viewBox="0 0 32 32">
<path fill="#18306c" style="fill: var(--color1, #18306c)" d="M32 16c0 8.837-7.163 16-16 16s-16-7.163-16-16c0-8.837 7.163-16 16-16s16 7.163 16 16z"></path>
<path fill="#fff" style="fill: var(--color2, #fff)" d="M10.857 16h10.286c0.316 0 0.571 0.256 0.571 0.571s-0.256 0.571-0.571 0.571h-10.286c-0.316 0-0.571-0.256-0.571-0.571s0.256-0.571 0.571-0.571z"></path>
<path fill="#fff" style="fill: var(--color2, #fff)" d="M10.857 11.429h10.286c0.316 0 0.571 0.256 0.571 0.571s-0.256 0.571-0.571 0.571h-10.286c-0.316 0-0.571-0.256-0.571-0.571s0.256-0.571 0.571-0.571z"></path>
<path fill="#fff" style="fill: var(--color2, #fff)" d="M10.857 20.571h10.286c0.316 0 0.571 0.256 0.571 0.571s-0.256 0.571-0.571 0.571h-10.286c-0.316 0-0.571-0.256-0.571-0.571s0.256-0.571 0.571-0.571z"></path>
</symbol>

<symbol id="icon-burger-close" viewBox="0 0 32 32">
<path fill="#18306c" style="fill: var(--color1, #18306c); stroke: var(--color2, #fff)" stroke="#fff" stroke-linejoin="miter" stroke-linecap="butt" stroke-miterlimit="4" stroke-width="1.1429" d="M31.429 16c0 8.521-6.908 15.429-15.429 15.429s-15.429-6.908-15.429-15.429c0-8.521 6.908-15.429 15.429-15.429s15.429 6.908 15.429 15.429z"></path>
<path fill="#fff" style="fill: var(--color2, #fff)" d="M12.768 12.531l7.273 7.273c0.223 0.223 0.223 0.585 0 0.808s-0.585 0.223-0.808 0l-7.273-7.273c-0.223-0.223-0.223-0.585 0-0.808s0.585-0.223 0.808 0z"></path>
<path fill="#fff" style="fill: var(--color2, #fff)" d="M11.96 19.804l7.273-7.273c0.223-0.223 0.585-0.223 0.808 0s0.223 0.585 0 0.808l-7.273 7.273c-0.223 0.223-0.585 0.223-0.808 0s-0.223-0.585 0-0.808z"></path>
</symbol>

</defs>
</svg>